<mxfile host="app.diagrams.net" agent="Mozilla/5.0 (X11; Ubuntu; Linux x86_64; rv:138.0) Gecko/20100101 Firefox/138.0" version="27.0.6">
  <diagram id="C5RBs43oDa-KdzZeNtuy" name="Page-1">
    <mxGraphModel dx="2046" dy="798" grid="1" gridSize="10" guides="1" tooltips="1" connect="1" arrows="1" fold="1" page="1" pageScale="1" pageWidth="827" pageHeight="1169" math="0" shadow="0">
      <root>
        <mxCell id="WIyWlLk6GJQsqaUBKTNV-0" />
        <mxCell id="WIyWlLk6GJQsqaUBKTNV-1" parent="WIyWlLk6GJQsqaUBKTNV-0" />
        <mxCell id="asMy0PvWTPp3YbjhJUl--8" value="" style="rounded=0;whiteSpace=wrap;html=1;fillColor=#b0e3e6;strokeColor=#0e8088;" parent="WIyWlLk6GJQsqaUBKTNV-1" vertex="1">
          <mxGeometry x="150" y="210" width="510" height="230" as="geometry" />
        </mxCell>
        <mxCell id="asMy0PvWTPp3YbjhJUl--15" value="" style="rounded=0;whiteSpace=wrap;html=1;fillColor=#d5e8d4;strokeColor=#82b366;labelBackgroundColor=none;" parent="WIyWlLk6GJQsqaUBKTNV-1" vertex="1">
          <mxGeometry x="-490" y="210" width="630" height="590" as="geometry" />
        </mxCell>
        <mxCell id="asMy0PvWTPp3YbjhJUl--16" value="" style="rounded=0;whiteSpace=wrap;html=1;fillColor=#ffcccc;strokeColor=#36393d;" parent="WIyWlLk6GJQsqaUBKTNV-1" vertex="1">
          <mxGeometry x="150" y="450" width="510" height="350" as="geometry" />
        </mxCell>
        <mxCell id="asMy0PvWTPp3YbjhJUl--17" value="Backend Server" style="text;html=1;align=center;verticalAlign=middle;whiteSpace=wrap;rounded=0;" parent="WIyWlLk6GJQsqaUBKTNV-1" vertex="1">
          <mxGeometry x="-490" y="210" width="80" height="50" as="geometry" />
        </mxCell>
        <mxCell id="asMy0PvWTPp3YbjhJUl--18" value="Frontend Interface" style="text;html=1;align=center;verticalAlign=middle;whiteSpace=wrap;rounded=0;" parent="WIyWlLk6GJQsqaUBKTNV-1" vertex="1">
          <mxGeometry x="150" y="210" width="80" height="50" as="geometry" />
        </mxCell>
        <mxCell id="asMy0PvWTPp3YbjhJUl--19" value="Drone Module" style="text;html=1;align=center;verticalAlign=middle;whiteSpace=wrap;rounded=0;" parent="WIyWlLk6GJQsqaUBKTNV-1" vertex="1">
          <mxGeometry x="160" y="450" width="80" height="50" as="geometry" />
        </mxCell>
        <mxCell id="asMy0PvWTPp3YbjhJUl--21" value="Socket.IO Client" style="rounded=1;whiteSpace=wrap;html=1;" parent="WIyWlLk6GJQsqaUBKTNV-1" vertex="1">
          <mxGeometry x="305" y="230" width="120" height="30" as="geometry" />
        </mxCell>
        <mxCell id="asMy0PvWTPp3YbjhJUl--23" value="" style="endArrow=classic;startArrow=classic;html=1;rounded=0;exitX=0.5;exitY=0;exitDx=0;exitDy=0;entryX=0;entryY=0.25;entryDx=0;entryDy=0;" parent="WIyWlLk6GJQsqaUBKTNV-1" source="asMy0PvWTPp3YbjhJUl--43" target="asMy0PvWTPp3YbjhJUl--21" edge="1">
          <mxGeometry width="50" height="50" relative="1" as="geometry">
            <mxPoint x="-35" y="245" as="sourcePoint" />
            <mxPoint x="70" y="330" as="targetPoint" />
            <Array as="points">
              <mxPoint x="-95" y="270" />
              <mxPoint x="100" y="270" />
              <mxPoint x="230" y="270" />
              <mxPoint x="230" y="238" />
            </Array>
          </mxGeometry>
        </mxCell>
        <mxCell id="asMy0PvWTPp3YbjhJUl--24" value="Photo Viewing" style="rounded=1;whiteSpace=wrap;html=1;" parent="WIyWlLk6GJQsqaUBKTNV-1" vertex="1">
          <mxGeometry x="170" y="380" width="150" height="40" as="geometry" />
        </mxCell>
        <mxCell id="asMy0PvWTPp3YbjhJUl--25" value="Mission Tracking &amp;amp; Logs" style="rounded=1;whiteSpace=wrap;html=1;" parent="WIyWlLk6GJQsqaUBKTNV-1" vertex="1">
          <mxGeometry x="490" y="278" width="150" height="40" as="geometry" />
        </mxCell>
        <mxCell id="asMy0PvWTPp3YbjhJUl--26" value="Drone Telemetry Display" style="rounded=1;whiteSpace=wrap;html=1;" parent="WIyWlLk6GJQsqaUBKTNV-1" vertex="1">
          <mxGeometry x="490" y="225" width="150" height="40" as="geometry" />
        </mxCell>
        <mxCell id="asMy0PvWTPp3YbjhJUl--27" value="Interactive Map" style="rounded=1;whiteSpace=wrap;html=1;" parent="WIyWlLk6GJQsqaUBKTNV-1" vertex="1">
          <mxGeometry x="170" y="320" width="150" height="40" as="geometry" />
        </mxCell>
        <mxCell id="asMy0PvWTPp3YbjhJUl--28" value="Flight Path Visualization &amp;amp; Planning" style="rounded=1;whiteSpace=wrap;html=1;" parent="WIyWlLk6GJQsqaUBKTNV-1" vertex="1">
          <mxGeometry x="490" y="332" width="150" height="40" as="geometry" />
        </mxCell>
        <mxCell id="asMy0PvWTPp3YbjhJUl--42" value="SkyController" style="rounded=1;whiteSpace=wrap;html=1;" parent="WIyWlLk6GJQsqaUBKTNV-1" vertex="1">
          <mxGeometry x="-10" y="620" width="120" height="40" as="geometry" />
        </mxCell>
        <mxCell id="GYYGo9g7cBHXduDntfi6-42" value="" style="edgeStyle=orthogonalEdgeStyle;rounded=0;orthogonalLoop=1;jettySize=auto;html=1;" edge="1" parent="WIyWlLk6GJQsqaUBKTNV-1" source="asMy0PvWTPp3YbjhJUl--43" target="GYYGo9g7cBHXduDntfi6-39">
          <mxGeometry relative="1" as="geometry" />
        </mxCell>
        <mxCell id="asMy0PvWTPp3YbjhJUl--43" value="Socket.IO Server" style="rounded=1;whiteSpace=wrap;html=1;" parent="WIyWlLk6GJQsqaUBKTNV-1" vertex="1">
          <mxGeometry x="-155" y="310" width="120" height="37.5" as="geometry" />
        </mxCell>
        <mxCell id="asMy0PvWTPp3YbjhJUl--48" value="&lt;div&gt;&lt;br&gt;&lt;/div&gt;&lt;div&gt;Missions Data&lt;/div&gt;" style="strokeWidth=2;html=1;shape=mxgraph.flowchart.database;whiteSpace=wrap;rounded=0;strokeColor=default;align=center;verticalAlign=middle;fontFamily=Helvetica;fontSize=12;fontColor=default;fillColor=default;" parent="WIyWlLk6GJQsqaUBKTNV-1" vertex="1">
          <mxGeometry x="-370" y="652.5" width="60" height="90" as="geometry" />
        </mxCell>
        <mxCell id="asMy0PvWTPp3YbjhJUl--63" value="Disconnect SkyController" style="rounded=1;whiteSpace=wrap;html=1;strokeColor=default;align=center;verticalAlign=middle;fontFamily=Helvetica;fontSize=12;fontColor=default;fillColor=default;" parent="WIyWlLk6GJQsqaUBKTNV-1" vertex="1">
          <mxGeometry x="-400" y="372" width="120" height="40" as="geometry" />
        </mxCell>
        <mxCell id="asMy0PvWTPp3YbjhJUl--64" value="&lt;div&gt;Olympe SDK&lt;/div&gt;" style="rounded=1;whiteSpace=wrap;html=1;strokeColor=default;align=center;verticalAlign=middle;fontFamily=Helvetica;fontSize=12;fontColor=default;fillColor=default;" parent="WIyWlLk6GJQsqaUBKTNV-1" vertex="1">
          <mxGeometry x="-155" y="580" width="120" height="40" as="geometry" />
        </mxCell>
        <mxCell id="asMy0PvWTPp3YbjhJUl--65" value="Get Drone Telemetry" style="rounded=1;whiteSpace=wrap;html=1;strokeColor=default;align=center;verticalAlign=middle;fontFamily=Helvetica;fontSize=12;fontColor=default;fillColor=default;" parent="WIyWlLk6GJQsqaUBKTNV-1" vertex="1">
          <mxGeometry x="-10" y="510" width="120" height="40" as="geometry" />
        </mxCell>
        <mxCell id="asMy0PvWTPp3YbjhJUl--141" value="" style="edgeStyle=orthogonalEdgeStyle;rounded=0;orthogonalLoop=1;jettySize=auto;html=1;fontFamily=Helvetica;fontSize=12;fontColor=default;" parent="WIyWlLk6GJQsqaUBKTNV-1" source="asMy0PvWTPp3YbjhJUl--66" target="asMy0PvWTPp3YbjhJUl--67" edge="1">
          <mxGeometry relative="1" as="geometry" />
        </mxCell>
        <mxCell id="asMy0PvWTPp3YbjhJUl--66" value="Calculate Grid" style="rounded=1;whiteSpace=wrap;html=1;strokeColor=default;align=center;verticalAlign=middle;fontFamily=Helvetica;fontSize=12;fontColor=default;fillColor=default;" parent="WIyWlLk6GJQsqaUBKTNV-1" vertex="1">
          <mxGeometry x="-400" y="450" width="120" height="40" as="geometry" />
        </mxCell>
        <mxCell id="asMy0PvWTPp3YbjhJUl--67" value="Execute Flight" style="rounded=1;whiteSpace=wrap;html=1;strokeColor=default;align=center;verticalAlign=middle;fontFamily=Helvetica;fontSize=12;fontColor=default;fillColor=default;" parent="WIyWlLk6GJQsqaUBKTNV-1" vertex="1">
          <mxGeometry x="-400" y="530" width="120" height="40" as="geometry" />
        </mxCell>
        <mxCell id="asMy0PvWTPp3YbjhJUl--82" value="" style="endArrow=classic;startArrow=classic;html=1;rounded=0;fontFamily=Helvetica;fontSize=12;fontColor=default;exitX=0.5;exitY=1;exitDx=0;exitDy=0;entryX=1;entryY=0.5;entryDx=0;entryDy=0;" parent="WIyWlLk6GJQsqaUBKTNV-1" source="asMy0PvWTPp3YbjhJUl--65" target="asMy0PvWTPp3YbjhJUl--64" edge="1">
          <mxGeometry width="50" height="50" relative="1" as="geometry">
            <mxPoint x="210" y="540" as="sourcePoint" />
            <mxPoint x="260" y="490" as="targetPoint" />
            <Array as="points">
              <mxPoint x="50" y="570" />
              <mxPoint x="50" y="600" />
            </Array>
          </mxGeometry>
        </mxCell>
        <mxCell id="asMy0PvWTPp3YbjhJUl--91" value="" style="edgeStyle=orthogonalEdgeStyle;rounded=0;orthogonalLoop=1;jettySize=auto;html=1;fontFamily=Helvetica;fontSize=12;fontColor=default;" parent="WIyWlLk6GJQsqaUBKTNV-1" source="asMy0PvWTPp3YbjhJUl--85" target="asMy0PvWTPp3YbjhJUl--86" edge="1">
          <mxGeometry relative="1" as="geometry" />
        </mxCell>
        <mxCell id="asMy0PvWTPp3YbjhJUl--85" value="Fly to waypoint" style="rounded=1;whiteSpace=wrap;html=1;strokeColor=default;align=center;verticalAlign=middle;fontFamily=Helvetica;fontSize=12;fontColor=default;fillColor=default;" parent="WIyWlLk6GJQsqaUBKTNV-1" vertex="1">
          <mxGeometry x="195" y="500" width="120" height="40" as="geometry" />
        </mxCell>
        <mxCell id="asMy0PvWTPp3YbjhJUl--92" value="" style="edgeStyle=orthogonalEdgeStyle;rounded=0;orthogonalLoop=1;jettySize=auto;html=1;fontFamily=Helvetica;fontSize=12;fontColor=default;" parent="WIyWlLk6GJQsqaUBKTNV-1" source="asMy0PvWTPp3YbjhJUl--86" target="asMy0PvWTPp3YbjhJUl--87" edge="1">
          <mxGeometry relative="1" as="geometry" />
        </mxCell>
        <mxCell id="asMy0PvWTPp3YbjhJUl--86" value="Adjust rotation" style="rounded=1;whiteSpace=wrap;html=1;strokeColor=default;align=center;verticalAlign=middle;fontFamily=Helvetica;fontSize=12;fontColor=default;fillColor=default;" parent="WIyWlLk6GJQsqaUBKTNV-1" vertex="1">
          <mxGeometry x="520" y="500" width="120" height="40" as="geometry" />
        </mxCell>
        <mxCell id="asMy0PvWTPp3YbjhJUl--93" value="" style="edgeStyle=orthogonalEdgeStyle;rounded=0;orthogonalLoop=1;jettySize=auto;html=1;fontFamily=Helvetica;fontSize=12;fontColor=default;" parent="WIyWlLk6GJQsqaUBKTNV-1" source="asMy0PvWTPp3YbjhJUl--87" target="asMy0PvWTPp3YbjhJUl--89" edge="1">
          <mxGeometry relative="1" as="geometry" />
        </mxCell>
        <mxCell id="asMy0PvWTPp3YbjhJUl--87" value="Take photo" style="rounded=1;whiteSpace=wrap;html=1;strokeColor=default;align=center;verticalAlign=middle;fontFamily=Helvetica;fontSize=12;fontColor=default;fillColor=default;" parent="WIyWlLk6GJQsqaUBKTNV-1" vertex="1">
          <mxGeometry x="520" y="575" width="120" height="40" as="geometry" />
        </mxCell>
        <mxCell id="asMy0PvWTPp3YbjhJUl--89" value="Transmit photo" style="rounded=1;whiteSpace=wrap;html=1;strokeColor=default;align=center;verticalAlign=middle;fontFamily=Helvetica;fontSize=12;fontColor=default;fillColor=default;" parent="WIyWlLk6GJQsqaUBKTNV-1" vertex="1">
          <mxGeometry x="195" y="575" width="120" height="40" as="geometry" />
        </mxCell>
        <mxCell id="asMy0PvWTPp3YbjhJUl--98" value="" style="edgeStyle=orthogonalEdgeStyle;rounded=0;orthogonalLoop=1;jettySize=auto;html=1;fontFamily=Helvetica;fontSize=12;fontColor=default;entryX=1;entryY=0.5;entryDx=0;entryDy=0;entryPerimeter=0;" parent="WIyWlLk6GJQsqaUBKTNV-1" source="asMy0PvWTPp3YbjhJUl--97" target="asMy0PvWTPp3YbjhJUl--48" edge="1">
          <mxGeometry relative="1" as="geometry" />
        </mxCell>
        <mxCell id="asMy0PvWTPp3YbjhJUl--106" value="" style="edgeStyle=orthogonalEdgeStyle;rounded=0;orthogonalLoop=1;jettySize=auto;html=1;fontFamily=Helvetica;fontSize=12;fontColor=default;" parent="WIyWlLk6GJQsqaUBKTNV-1" source="asMy0PvWTPp3YbjhJUl--97" target="asMy0PvWTPp3YbjhJUl--105" edge="1">
          <mxGeometry relative="1" as="geometry" />
        </mxCell>
        <mxCell id="asMy0PvWTPp3YbjhJUl--97" value="Retrieve photo" style="rounded=1;whiteSpace=wrap;html=1;strokeColor=default;align=center;verticalAlign=middle;fontFamily=Helvetica;fontSize=12;fontColor=default;fillColor=default;" parent="WIyWlLk6GJQsqaUBKTNV-1" vertex="1">
          <mxGeometry x="-155" y="675" width="120" height="45" as="geometry" />
        </mxCell>
        <mxCell id="GYYGo9g7cBHXduDntfi6-6" value="" style="edgeStyle=orthogonalEdgeStyle;rounded=0;orthogonalLoop=1;jettySize=auto;html=1;exitX=1;exitY=0.75;exitDx=0;exitDy=0;" edge="1" parent="WIyWlLk6GJQsqaUBKTNV-1" source="asMy0PvWTPp3YbjhJUl--100" target="GYYGo9g7cBHXduDntfi6-5">
          <mxGeometry relative="1" as="geometry" />
        </mxCell>
        <mxCell id="asMy0PvWTPp3YbjhJUl--100" value="Event emitter" style="rounded=1;whiteSpace=wrap;html=1;strokeColor=default;align=center;verticalAlign=middle;fontFamily=Helvetica;fontSize=12;fontColor=default;fillColor=default;" parent="WIyWlLk6GJQsqaUBKTNV-1" vertex="1">
          <mxGeometry x="194" y="640" width="122.5" height="40" as="geometry" />
        </mxCell>
        <mxCell id="asMy0PvWTPp3YbjhJUl--104" value="" style="endArrow=classic;html=1;rounded=0;fontFamily=Helvetica;fontSize=12;fontColor=default;exitX=0.25;exitY=1;exitDx=0;exitDy=0;entryX=0.5;entryY=0;entryDx=0;entryDy=0;" parent="WIyWlLk6GJQsqaUBKTNV-1" source="asMy0PvWTPp3YbjhJUl--64" target="asMy0PvWTPp3YbjhJUl--97" edge="1">
          <mxGeometry width="50" height="50" relative="1" as="geometry">
            <mxPoint x="210" y="730" as="sourcePoint" />
            <mxPoint x="260" y="680" as="targetPoint" />
            <Array as="points">
              <mxPoint x="-125" y="650" />
              <mxPoint x="-95" y="650" />
            </Array>
          </mxGeometry>
        </mxCell>
        <mxCell id="asMy0PvWTPp3YbjhJUl--105" value="YOLO computer vision model" style="rounded=1;whiteSpace=wrap;html=1;strokeColor=default;align=center;verticalAlign=middle;fontFamily=Helvetica;fontSize=12;fontColor=default;fillColor=default;" parent="WIyWlLk6GJQsqaUBKTNV-1" vertex="1">
          <mxGeometry x="-10" y="675" width="120" height="45" as="geometry" />
        </mxCell>
        <mxCell id="asMy0PvWTPp3YbjhJUl--109" value="" style="endArrow=classic;html=1;rounded=0;fontFamily=Helvetica;fontSize=12;fontColor=default;exitX=0.5;exitY=1;exitDx=0;exitDy=0;entryX=1;entryY=0.5;entryDx=0;entryDy=0;entryPerimeter=0;" parent="WIyWlLk6GJQsqaUBKTNV-1" source="asMy0PvWTPp3YbjhJUl--105" target="asMy0PvWTPp3YbjhJUl--48" edge="1">
          <mxGeometry width="50" height="50" relative="1" as="geometry">
            <mxPoint x="210" y="560" as="sourcePoint" />
            <mxPoint x="260" y="510" as="targetPoint" />
            <Array as="points">
              <mxPoint x="50" y="740" />
              <mxPoint x="-170" y="740" />
              <mxPoint x="-210" y="740" />
              <mxPoint x="-260" y="740" />
              <mxPoint x="-260" y="698" />
            </Array>
          </mxGeometry>
        </mxCell>
        <mxCell id="asMy0PvWTPp3YbjhJUl--110" value="&lt;div style=&quot;line-height: 60%;&quot;&gt;&lt;font style=&quot;font-size: 8px; line-height: 60%;&quot;&gt;Save raw picture&lt;/font&gt;&lt;/div&gt;" style="text;html=1;align=center;verticalAlign=middle;whiteSpace=wrap;rounded=0;fontFamily=Helvetica;fontSize=12;fontColor=default;" parent="WIyWlLk6GJQsqaUBKTNV-1" vertex="1">
          <mxGeometry x="-250" y="670" width="80" height="30" as="geometry" />
        </mxCell>
        <mxCell id="asMy0PvWTPp3YbjhJUl--112" value="&lt;div style=&quot;line-height: 60%;&quot;&gt;&lt;div&gt;&lt;font style=&quot;font-size: 8px; line-height: 60%;&quot;&gt;Save processed picture&lt;/font&gt;&lt;/div&gt;&lt;/div&gt;" style="text;html=1;align=center;verticalAlign=middle;whiteSpace=wrap;rounded=0;fontFamily=Helvetica;fontSize=12;fontColor=default;" parent="WIyWlLk6GJQsqaUBKTNV-1" vertex="1">
          <mxGeometry x="-155" y="740.5" width="105" height="30" as="geometry" />
        </mxCell>
        <mxCell id="asMy0PvWTPp3YbjhJUl--118" value="Get missions data" style="rounded=1;whiteSpace=wrap;html=1;strokeColor=default;align=center;verticalAlign=middle;fontFamily=Helvetica;fontSize=12;fontColor=default;fillColor=default;" parent="WIyWlLk6GJQsqaUBKTNV-1" vertex="1">
          <mxGeometry x="-320" y="250" width="120" height="40" as="geometry" />
        </mxCell>
        <mxCell id="asMy0PvWTPp3YbjhJUl--120" value="" style="endArrow=classic;startArrow=classic;html=1;rounded=0;fontFamily=Helvetica;fontSize=12;fontColor=default;entryX=0;entryY=0.5;entryDx=0;entryDy=0;exitX=0;exitY=0.5;exitDx=0;exitDy=0;exitPerimeter=0;" parent="WIyWlLk6GJQsqaUBKTNV-1" source="asMy0PvWTPp3YbjhJUl--48" target="asMy0PvWTPp3YbjhJUl--118" edge="1">
          <mxGeometry width="50" height="50" relative="1" as="geometry">
            <mxPoint x="170" y="540" as="sourcePoint" />
            <mxPoint x="220" y="490" as="targetPoint" />
            <Array as="points">
              <mxPoint x="-340" y="698" />
              <mxPoint x="-470" y="700" />
              <mxPoint x="-470" y="285" />
              <mxPoint x="-470" y="270" />
            </Array>
          </mxGeometry>
        </mxCell>
        <mxCell id="asMy0PvWTPp3YbjhJUl--125" value="" style="endArrow=classic;startArrow=classic;html=1;rounded=0;fontFamily=Helvetica;fontSize=12;fontColor=default;exitX=0.5;exitY=1;exitDx=0;exitDy=0;entryX=0;entryY=0.5;entryDx=0;entryDy=0;" parent="WIyWlLk6GJQsqaUBKTNV-1" source="asMy0PvWTPp3YbjhJUl--118" target="asMy0PvWTPp3YbjhJUl--43" edge="1">
          <mxGeometry width="50" height="50" relative="1" as="geometry">
            <mxPoint x="170" y="540" as="sourcePoint" />
            <mxPoint x="220" y="490" as="targetPoint" />
            <Array as="points">
              <mxPoint x="-260" y="320" />
              <mxPoint x="-260" y="330" />
            </Array>
          </mxGeometry>
        </mxCell>
        <mxCell id="asMy0PvWTPp3YbjhJUl--130" value="" style="endArrow=classic;startArrow=classic;html=1;rounded=0;fontFamily=Helvetica;fontSize=12;fontColor=default;exitX=0.5;exitY=0;exitDx=0;exitDy=0;entryX=0;entryY=0.75;entryDx=0;entryDy=0;" parent="WIyWlLk6GJQsqaUBKTNV-1" source="asMy0PvWTPp3YbjhJUl--27" target="asMy0PvWTPp3YbjhJUl--21" edge="1">
          <mxGeometry width="50" height="50" relative="1" as="geometry">
            <mxPoint x="170" y="540" as="sourcePoint" />
            <mxPoint x="220" y="490" as="targetPoint" />
            <Array as="points">
              <mxPoint x="245" y="300" />
              <mxPoint x="245" y="253" />
            </Array>
          </mxGeometry>
        </mxCell>
        <mxCell id="asMy0PvWTPp3YbjhJUl--132" value="" style="endArrow=classic;startArrow=classic;html=1;rounded=0;fontFamily=Helvetica;fontSize=12;fontColor=default;exitX=1;exitY=0.75;exitDx=0;exitDy=0;entryX=0;entryY=0.5;entryDx=0;entryDy=0;" parent="WIyWlLk6GJQsqaUBKTNV-1" source="asMy0PvWTPp3YbjhJUl--21" target="asMy0PvWTPp3YbjhJUl--25" edge="1">
          <mxGeometry width="50" height="50" relative="1" as="geometry">
            <mxPoint x="435" y="255" as="sourcePoint" />
            <mxPoint x="480" y="255" as="targetPoint" />
            <Array as="points">
              <mxPoint x="450" y="253" />
              <mxPoint x="450" y="298" />
            </Array>
          </mxGeometry>
        </mxCell>
        <mxCell id="asMy0PvWTPp3YbjhJUl--133" value="" style="endArrow=classic;startArrow=classic;html=1;rounded=0;fontFamily=Helvetica;fontSize=12;fontColor=default;exitX=0.75;exitY=1;exitDx=0;exitDy=0;entryX=0;entryY=0.5;entryDx=0;entryDy=0;" parent="WIyWlLk6GJQsqaUBKTNV-1" source="asMy0PvWTPp3YbjhJUl--21" target="asMy0PvWTPp3YbjhJUl--28" edge="1">
          <mxGeometry width="50" height="50" relative="1" as="geometry">
            <mxPoint x="405" y="270" as="sourcePoint" />
            <mxPoint x="480" y="307" as="targetPoint" />
            <Array as="points">
              <mxPoint x="395" y="352" />
            </Array>
          </mxGeometry>
        </mxCell>
        <mxCell id="asMy0PvWTPp3YbjhJUl--136" value="" style="endArrow=classic;startArrow=classic;html=1;rounded=0;fontFamily=Helvetica;fontSize=12;fontColor=default;exitX=1;exitY=0.5;exitDx=0;exitDy=0;entryX=0.25;entryY=1;entryDx=0;entryDy=0;" parent="WIyWlLk6GJQsqaUBKTNV-1" source="asMy0PvWTPp3YbjhJUl--24" target="asMy0PvWTPp3YbjhJUl--21" edge="1">
          <mxGeometry width="50" height="50" relative="1" as="geometry">
            <mxPoint x="170" y="540" as="sourcePoint" />
            <mxPoint x="220" y="490" as="targetPoint" />
            <Array as="points">
              <mxPoint x="335" y="400" />
            </Array>
          </mxGeometry>
        </mxCell>
        <mxCell id="GYYGo9g7cBHXduDntfi6-2" value="" style="endArrow=classic;html=1;rounded=0;exitX=0.5;exitY=1;exitDx=0;exitDy=0;entryX=0.5;entryY=0;entryDx=0;entryDy=0;" edge="1" parent="WIyWlLk6GJQsqaUBKTNV-1" source="asMy0PvWTPp3YbjhJUl--89" target="asMy0PvWTPp3YbjhJUl--100">
          <mxGeometry width="50" height="50" relative="1" as="geometry">
            <mxPoint x="210" y="520" as="sourcePoint" />
            <mxPoint x="260" y="470" as="targetPoint" />
            <Array as="points" />
          </mxGeometry>
        </mxCell>
        <mxCell id="GYYGo9g7cBHXduDntfi6-4" value="" style="edgeStyle=orthogonalEdgeStyle;rounded=0;orthogonalLoop=1;jettySize=auto;html=1;entryX=1;entryY=0.25;entryDx=0;entryDy=0;" edge="1" parent="WIyWlLk6GJQsqaUBKTNV-1" source="GYYGo9g7cBHXduDntfi6-3" target="asMy0PvWTPp3YbjhJUl--100">
          <mxGeometry relative="1" as="geometry">
            <Array as="points">
              <mxPoint x="580" y="650" />
            </Array>
          </mxGeometry>
        </mxCell>
        <mxCell id="GYYGo9g7cBHXduDntfi6-3" value="Telemetry data" style="rounded=1;whiteSpace=wrap;html=1;strokeColor=default;align=center;verticalAlign=middle;fontFamily=Helvetica;fontSize=12;fontColor=default;fillColor=default;" vertex="1" parent="WIyWlLk6GJQsqaUBKTNV-1">
          <mxGeometry x="520" y="720" width="120" height="40" as="geometry" />
        </mxCell>
        <mxCell id="GYYGo9g7cBHXduDntfi6-5" value="Receiver / Transmitter" style="rounded=1;whiteSpace=wrap;html=1;strokeColor=default;align=center;verticalAlign=middle;fontFamily=Helvetica;fontSize=12;fontColor=default;fillColor=default;" vertex="1" parent="WIyWlLk6GJQsqaUBKTNV-1">
          <mxGeometry x="345" y="720" width="137.5" height="40" as="geometry" />
        </mxCell>
        <mxCell id="GYYGo9g7cBHXduDntfi6-7" value="" style="endArrow=classic;startArrow=classic;html=1;rounded=0;exitX=1;exitY=0.5;exitDx=0;exitDy=0;entryX=0;entryY=0.5;entryDx=0;entryDy=0;" edge="1" parent="WIyWlLk6GJQsqaUBKTNV-1" source="asMy0PvWTPp3YbjhJUl--42" target="GYYGo9g7cBHXduDntfi6-5">
          <mxGeometry width="50" height="50" relative="1" as="geometry">
            <mxPoint x="200" y="600" as="sourcePoint" />
            <mxPoint x="250" y="550" as="targetPoint" />
            <Array as="points">
              <mxPoint x="130" y="640" />
              <mxPoint x="130" y="740" />
            </Array>
          </mxGeometry>
        </mxCell>
        <mxCell id="GYYGo9g7cBHXduDntfi6-8" value="" style="endArrow=classic;html=1;rounded=0;exitX=0.25;exitY=0;exitDx=0;exitDy=0;entryX=0;entryY=0.5;entryDx=0;entryDy=0;" edge="1" parent="WIyWlLk6GJQsqaUBKTNV-1" source="GYYGo9g7cBHXduDntfi6-5" target="asMy0PvWTPp3YbjhJUl--85">
          <mxGeometry width="50" height="50" relative="1" as="geometry">
            <mxPoint x="215" y="595" as="sourcePoint" />
            <mxPoint x="265" y="545" as="targetPoint" />
            <Array as="points">
              <mxPoint x="379" y="700" />
              <mxPoint x="175" y="700" />
              <mxPoint x="175" y="520" />
            </Array>
          </mxGeometry>
        </mxCell>
        <mxCell id="GYYGo9g7cBHXduDntfi6-17" value="" style="endArrow=classic;startArrow=classic;html=1;rounded=0;exitX=0.75;exitY=1;exitDx=0;exitDy=0;entryX=0;entryY=0.5;entryDx=0;entryDy=0;" edge="1" parent="WIyWlLk6GJQsqaUBKTNV-1" source="asMy0PvWTPp3YbjhJUl--64" target="asMy0PvWTPp3YbjhJUl--42">
          <mxGeometry width="50" height="50" relative="1" as="geometry">
            <mxPoint x="90" y="460" as="sourcePoint" />
            <mxPoint x="140" y="410" as="targetPoint" />
            <Array as="points">
              <mxPoint x="-65" y="640" />
            </Array>
          </mxGeometry>
        </mxCell>
        <mxCell id="GYYGo9g7cBHXduDntfi6-19" value="Connect / Disconnect SkyController" style="rounded=1;whiteSpace=wrap;html=1;" vertex="1" parent="WIyWlLk6GJQsqaUBKTNV-1">
          <mxGeometry x="490" y="386" width="150" height="40" as="geometry" />
        </mxCell>
        <mxCell id="GYYGo9g7cBHXduDntfi6-21" value="" style="endArrow=classic;html=1;rounded=0;exitX=0;exitY=0.5;exitDx=0;exitDy=0;entryX=0.5;entryY=1;entryDx=0;entryDy=0;" edge="1" parent="WIyWlLk6GJQsqaUBKTNV-1" source="GYYGo9g7cBHXduDntfi6-19" target="asMy0PvWTPp3YbjhJUl--21">
          <mxGeometry width="50" height="50" relative="1" as="geometry">
            <mxPoint x="160" y="460" as="sourcePoint" />
            <mxPoint x="210" y="410" as="targetPoint" />
            <Array as="points">
              <mxPoint x="365" y="406" />
            </Array>
          </mxGeometry>
        </mxCell>
        <mxCell id="GYYGo9g7cBHXduDntfi6-22" value="" style="endArrow=classic;startArrow=classic;html=1;rounded=0;exitX=0;exitY=0.5;exitDx=0;exitDy=0;entryX=1;entryY=0.25;entryDx=0;entryDy=0;" edge="1" parent="WIyWlLk6GJQsqaUBKTNV-1" source="asMy0PvWTPp3YbjhJUl--26" target="asMy0PvWTPp3YbjhJUl--21">
          <mxGeometry width="50" height="50" relative="1" as="geometry">
            <mxPoint x="220" y="570" as="sourcePoint" />
            <mxPoint x="270" y="520" as="targetPoint" />
            <Array as="points">
              <mxPoint x="460" y="245" />
              <mxPoint x="460" y="238" />
            </Array>
          </mxGeometry>
        </mxCell>
        <mxCell id="GYYGo9g7cBHXduDntfi6-27" value="" style="endArrow=classic;html=1;rounded=0;exitX=0;exitY=0.5;exitDx=0;exitDy=0;entryX=0;entryY=0.5;entryDx=0;entryDy=0;" edge="1" parent="WIyWlLk6GJQsqaUBKTNV-1" source="asMy0PvWTPp3YbjhJUl--63" target="asMy0PvWTPp3YbjhJUl--64">
          <mxGeometry width="50" height="50" relative="1" as="geometry">
            <mxPoint x="-60" y="540" as="sourcePoint" />
            <mxPoint x="-10" y="490" as="targetPoint" />
            <Array as="points">
              <mxPoint x="-430" y="392" />
              <mxPoint x="-430" y="440" />
              <mxPoint x="-430" y="590" />
              <mxPoint x="-430" y="600" />
            </Array>
          </mxGeometry>
        </mxCell>
        <mxCell id="GYYGo9g7cBHXduDntfi6-32" value="" style="endArrow=classic;html=1;rounded=0;exitX=1;exitY=0.5;exitDx=0;exitDy=0;entryX=0.25;entryY=0;entryDx=0;entryDy=0;" edge="1" parent="WIyWlLk6GJQsqaUBKTNV-1" source="asMy0PvWTPp3YbjhJUl--67" target="asMy0PvWTPp3YbjhJUl--64">
          <mxGeometry width="50" height="50" relative="1" as="geometry">
            <mxPoint x="-30" y="540" as="sourcePoint" />
            <mxPoint x="20" y="490" as="targetPoint" />
            <Array as="points">
              <mxPoint x="-125" y="550" />
            </Array>
          </mxGeometry>
        </mxCell>
        <mxCell id="GYYGo9g7cBHXduDntfi6-39" value="Connect SkyController" style="rounded=1;whiteSpace=wrap;html=1;strokeColor=default;align=center;verticalAlign=middle;fontFamily=Helvetica;fontSize=12;fontColor=default;fillColor=default;" vertex="1" parent="WIyWlLk6GJQsqaUBKTNV-1">
          <mxGeometry x="-155" y="372" width="120" height="40" as="geometry" />
        </mxCell>
        <mxCell id="GYYGo9g7cBHXduDntfi6-40" value="" style="endArrow=classic;html=1;rounded=0;exitX=0.5;exitY=1;exitDx=0;exitDy=0;entryX=1;entryY=0.5;entryDx=0;entryDy=0;" edge="1" parent="WIyWlLk6GJQsqaUBKTNV-1" source="GYYGo9g7cBHXduDntfi6-39" target="asMy0PvWTPp3YbjhJUl--66">
          <mxGeometry width="50" height="50" relative="1" as="geometry">
            <mxPoint x="-90" y="540" as="sourcePoint" />
            <mxPoint x="-40" y="490" as="targetPoint" />
            <Array as="points">
              <mxPoint x="-95" y="470" />
            </Array>
          </mxGeometry>
        </mxCell>
        <mxCell id="GYYGo9g7cBHXduDntfi6-41" value="" style="endArrow=classic;html=1;rounded=0;exitX=0;exitY=0.5;exitDx=0;exitDy=0;entryX=1;entryY=0.5;entryDx=0;entryDy=0;" edge="1" parent="WIyWlLk6GJQsqaUBKTNV-1" source="GYYGo9g7cBHXduDntfi6-39" target="asMy0PvWTPp3YbjhJUl--63">
          <mxGeometry width="50" height="50" relative="1" as="geometry">
            <mxPoint x="-90" y="540" as="sourcePoint" />
            <mxPoint x="-40" y="490" as="targetPoint" />
          </mxGeometry>
        </mxCell>
        <mxCell id="GYYGo9g7cBHXduDntfi6-56" value="" style="endArrow=classic;startArrow=classic;html=1;rounded=0;exitX=1;exitY=0.5;exitDx=0;exitDy=0;entryX=0.503;entryY=-0.055;entryDx=0;entryDy=0;entryPerimeter=0;" edge="1" parent="WIyWlLk6GJQsqaUBKTNV-1" source="GYYGo9g7cBHXduDntfi6-39" target="asMy0PvWTPp3YbjhJUl--65">
          <mxGeometry width="50" height="50" relative="1" as="geometry">
            <mxPoint x="-10" y="500" as="sourcePoint" />
            <mxPoint x="40" y="450" as="targetPoint" />
            <Array as="points">
              <mxPoint x="50" y="392" />
              <mxPoint x="50" y="460" />
            </Array>
          </mxGeometry>
        </mxCell>
      </root>
    </mxGraphModel>
  </diagram>
</mxfile>
